<?xml version="1.0" encoding="iso-8859-1"?>
<!DOCTYPE svg PUBLIC "-//W3C//DTD SVG 1.1//EN" "http://www.w3.org/Graphics/SVG/1.1/DTD/svg11.dtd">
<svg 
 version="1.1" xmlns="http://www.w3.org/2000/svg" xmlns:xlink="http://www.w3.org/1999/xlink" x="0px" y="0px" width="512px"
	 height="512px" viewBox="0 0 512 512" enable-background="new 0 0 512 512" xml:space="preserve"
><g ><g></g><path display="inline" fill-rule="evenodd" clip-rule="evenodd" d="M467.065,245.534V73.323c0-21.779-17.774-39.497-39.609-39.497
		H40.118C18.274,33.826,0.5,51.543,0.5,73.323v276.485c0,21.779,17.774,39.497,39.618,39.497h212.389
		c18.304,51.768,67.65,88.869,125.688,88.869c73.63,0,133.305-59.679,133.305-133.305
		C511.5,305.391,494.329,269.938,467.065,245.534z M171.019,215.961l-81.953,81.71c-2.578,2.577-5.962,3.861-9.338,3.861
		s-6.761-1.284-9.338-3.861c-5.155-5.134-5.155-13.474,0-18.616l78.846-78.607l-77.179-54.971
		c-5.937-4.222-7.308-12.449-3.072-18.364c4.244-5.915,12.488-7.286,18.425-3.06l146.375,104.249l146.383-104.249
		c5.927-4.227,14.172-2.855,18.416,3.06c4.243,5.915,2.863,14.142-3.072,18.364l-77.18,54.971l17.938,17.887
		c-9.021,2.985-17.613,6.899-25.662,11.647l-14.06-14.021l-62.764,44.699L171.019,215.961z M378.195,455.956
		c-61.254,0-111.087-49.832-111.087-111.087c0-61.254,49.833-111.086,111.087-111.086s111.087,49.833,111.087,111.086
		C489.282,406.124,439.449,455.956,378.195,455.956z M402.887,320.184h49.364v49.372h-49.364v49.373h-49.382v-49.373h-49.364
		v-49.372h49.364v-49.373h49.382V320.184z"></path></g></svg>