<?xml version="1.0" encoding="iso-8859-1"?>
<!DOCTYPE svg PUBLIC "-//W3C//DTD SVG 1.1//EN" "http://www.w3.org/Graphics/SVG/1.1/DTD/svg11.dtd">
<svg 
 version="1.1" xmlns="http://www.w3.org/2000/svg" xmlns:xlink="http://www.w3.org/1999/xlink" x="0px" y="0px" width="512px"
	 height="512px" viewBox="0 0 512 512" style="enable-background:new 0 0 512 512;" xml:space="preserve"
><g id="afcae5a789ccd549f9c6e2a2f81b1df4"><g></g><path style="fill-rule: evenodd; clip-rule: evenodd;" d="M329.953,6.85c-36.242-5.811-55.471-6.61-65.146-6.29V0.503h-17.615V0.56
			c-9.675-0.32-28.903,0.479-65.146,6.29C58.991,26.575,55.936,78.028,55.936,78.028v256.938c0,0,18.732,61.457,68.553,105.417
			C174.7,484.675,256,511.5,256,511.5s81.3-26.825,131.511-71.116c49.821-43.96,68.554-105.417,68.554-105.417V78.028
			C456.064,78.028,453.009,26.575,329.953,6.85z M326.022,266.968l16.528,97.407L256,318.387l-86.551,45.988l16.529-97.407
			l-70.022-68.986l96.77-14.216L256,95.14l43.275,88.626l96.77,14.216L326.022,266.968z"></path></g></svg>